Coordinates
version=1
nRows=13
nColumns=22
inDegrees=yes

Units are S.I. units (second, meters, Newtons, ...)
If the header above contains a line with 'inDegrees', this indicates whether rotational values are in degrees (yes) or radians (no).

endheader
time	pelvis_tilt	pelvis_list	pelvis_rotation	pelvis_tx	pelvis_ty	pelvis_tz	hip_flexion_r	hip_adduction_r	hip_rotation_r	knee_angle_r	ankle_angle_r	subtalar_angle_r	hip_flexion_l	hip_adduction_l	hip_rotation_l	knee_angle_l	ankle_angle_l	subtalar_angle_l	lumbar_extension	lumbar_bending	lumbar_rotation
      0.01000000	      1.59651234	     -1.07526246	      1.83668414	     -1.13420854	      1.07867834	     -0.59384774	     -4.67811633	      1.69715861	     -1.44234297	     -9.64743191	     12.30014433	     -4.02471103	     -3.92565369	      0.53632821	     -2.08992524	    -10.78984365	     14.36294155	     -1.18700416	     -1.71309169	     -1.10523266	     -5.78718957
      0.02000000	      1.59339004	     -1.07744290	      1.84072029	     -1.13403845	      1.07866253	     -0.59394942	     -4.68360009	      1.69491530	     -1.43906004	     -9.65082985	     12.29899810	     -4.02482916	     -3.93102068	      0.53883262	     -2.09056134	    -10.79162793	     14.36560640	     -1.18724469	     -1.70617590	     -1.10226148	     -5.78609464
      0.03000000	      1.57806103	     -1.07677093	      1.82423603	     -1.13388351	      1.07860819	     -0.59399289	     -4.68679597	      1.68880616	     -1.45149320	     -9.62693775	     12.29669248	     -4.02775021	     -3.93073696	      0.54463373	     -2.10278665	    -10.78090249	     14.38806017	     -1.19030663	     -1.68979744	     -1.10882199	     -5.76756368
      0.04000000	      1.53361058	     -1.06003490	      1.78119282	     -1.13380238	      1.07849775	     -0.59399410	     -4.63603666	      1.66072329	     -1.47953109	     -9.63523003	     12.29609646	     -4.05037248	     -3.88533278	      0.56904431	     -2.15116700	    -10.79310725	     14.41056773	     -1.19523533	     -1.65096202	     -1.13719006	     -5.72363828
      0.05000000	      1.50224634	     -1.05851499	      1.75627701	     -1.13368541	      1.07840611	     -0.59400837	     -4.62307260	      1.65252642	     -1.52113581	     -9.60177213	     12.30424156	     -4.06023752	     -3.86116698	      0.57494167	     -2.17093346	    -10.79183860	     14.41689465	     -1.19677113	     -1.62314724	     -1.15198919	     -5.68903538
      0.06000000	      1.38758749	     -1.04005749	      1.70811563	     -1.13363915	      1.07819612	     -0.59401557	     -4.47956446	      1.61968812	     -1.53794924	     -9.64047721	     12.33062127	     -4.13108324	     -3.72708302	      0.60376918	     -2.22208196	    -10.82673784	     14.42791976	     -1.19939344	     -1.50395359	     -1.18526776	     -5.64811620
      0.07000000	      1.36873933	     -1.03870174	      1.68786537	     -1.13350116	      1.07813538	     -0.59406895	     -4.47163668	      1.61047527	     -1.57190080	     -9.62570692	     12.31518373	     -4.13929159	     -3.72038196	      0.61081764	     -2.24011453	    -10.81959624	     14.44282848	     -1.20181341	     -1.48720652	     -1.19738915	     -5.63184073
      0.08000000	      1.34513612	     -1.03282107	      1.66440827	     -1.13335638	      1.07807522	     -0.59412910	     -4.45114578	      1.59512905	     -1.59462420	     -9.62675195	     12.30132466	     -4.15652747	     -3.70837853	      0.62312013	     -2.26580683	    -10.81396253	     14.45616446	     -1.20437357	     -1.46298197	     -1.21412294	     -5.61817559
      0.09000000	      1.33880560	     -1.03679752	      1.65086209	     -1.13321649	      1.07804718	     -0.59421123	     -4.45043028	      1.59250533	     -1.59691310	     -9.62765656	     12.30054202	     -4.15907324	     -3.71004756	      0.62520370	     -2.26625222	    -10.81780209	     14.45685262	     -1.20455657	     -1.45894981	     -1.21726266	     -5.62095446
      0.10000000	      1.28924638	     -1.02212219	      1.61475341	     -1.13308993	      1.07796418	     -0.59427841	     -4.38874750	      1.56550585	     -1.58167661	     -9.65328858	     12.29210765	     -4.22338590	     -3.66486486	      0.64964980	     -2.31590863	    -10.82185180	     14.46851034	     -1.21042328	     -1.40372239	     -1.24366359	     -5.59024684
      0.11000000	      1.28024038	     -1.02883455	      1.60512302	     -1.13293814	      1.07794287	     -0.59437353	     -4.38461818	      1.56559299	     -1.57686368	     -9.65748473	     12.29364674	     -4.22978800	     -3.67023894	      0.64863518	     -2.32478031	    -10.81174792	     14.47287163	     -1.21154378	     -1.39245191	     -1.24336445	     -5.61136173
      0.12000000	      1.27615344	     -1.03429571	      1.59716758	     -1.13280040	      1.07793075	     -0.59446118	     -4.38590765	      1.56544094	     -1.57594900	     -9.66001249	     12.29301779	     -4.23105015	     -3.67429746	      0.64840897	     -2.32599517	    -10.81393883	     14.47417593	     -1.21206464	     -1.38786413	     -1.24829476	     -5.61692341
      0.13000000	      1.26684350	     -1.03777158	      1.58348957	     -1.13267061	      1.07791466	     -0.59455873	     -4.37900606	      1.56105005	     -1.56298915	     -9.66605310	     12.29068549	     -4.23618461	     -3.67946096	      0.65167357	     -2.34443437	    -10.80190904	     14.48468014	     -1.21586177	     -1.37812534	     -1.24765590	     -5.64280245
